P2																																				
37 9																																				
255																																			
0	0	0	0	0	0	0	0	0	0	0	0	0	0	0	0	0	0	0	0	0	0	0	0	0	0	0	0	0	0	0	0	0	0	0	0	0
0	0	0	0	0	0	0	0	0	0	0	0	0	0	0	0	0	0	0	0	0	0	0	0	0	0	0	0	0	0	0	0	0	0	0	0	0
0	0	51	51	51	51	51	0	0	99	99	99	99	99	0	0	143	143	143	143	143	0	0	191	191	191	191	191	0	0	232	232	232	232	232	0	0
0	0	51	0	0	0	0	0	0	99	0	0	0	0	0	0	143	0	0	0	0	0	0	191	0	0	0	0	0	0	0	0	232	0	0	0	0
0	0	51	0	0	0	0	0	0	99	99	99	0	0	0	0	143	143	143	0	0	0	0	191	191	191	0	0	0	0	0	0	232	0	0	0	0
0	0	51	0	0	0	0	0	0	99	0	0	0	0	0	0	143	0	0	0	0	0	0	191	0	0	0	0	0	0	0	0	232	0	0	0	0
0	0	51	51	51	51	51	0	0	99	99	99	99	99	0	0	143	0	0	0	0	0	0	191	191	191	191	191	0	0	0	0	232	0	0	0	0
0	0	0	0	0	0	0	0	0	0	0	0	0	0	0	0	0	0	0	0	0	0	0	0	0	0	0	0	0	0	0	0	0	0	0	0	0
0	0	0	0	0	0	0	0	0	0	0	0	0	0	0	0	0	0	0	0	0	0	0	0	0	0	0	0	0	0	0	0	0	0	0	0	0

